<?xml version="1.0" encoding="utf-8"?>
<!-- Generator: Adobe Illustrator 21.1.0, SVG Export Plug-In . SVG Version: 6.00 Build 0)  -->
<svg version="1.1" id="Layer_1" xmlns="http://www.w3.org/2000/svg" xmlns:xlink="http://www.w3.org/1999/xlink" x="0px" y="0px"
	 viewBox="0 0 48 48" style="enable-background:new 0 0 48 48;" xml:space="preserve">
<style type="text/css">
	.st0{fill:#333333;}
</style>
<title>Combined Shape</title>
<desc>Created with Sketch.</desc>
<g id="Page-3">
	<g id="Essential-Home-01-Copy-49" transform="translate(-35.000000, -13.000000)">
		<g id="Primary-nav">
			<g id="TS-Logo" transform="translate(22.000000, 13.000000)">
				<path id="Combined-Shape" class="st0" d="M21,24c0-8.9,7.2-16,16-16c8.9,0,16,7.2,16,16c0,8.9-7.2,16-16,16
					C28.1,40,21,32.9,21,24z M44.3,23H40c-0.4,0-0.6,0.4-0.6,0.8c0,0.5,0.3,0.8,0.6,0.8h4.4c0.5,0,0.9,0.5,0.9,1.1s-0.4,1.1-0.9,1.1
					H27.6c-0.4,0-0.6,0.4-0.6,0.8c0,0.5,0.3,0.8,0.6,0.8h16.7c1.2,0,2.2-1.3,2.2-2.8C46.5,24.2,45.5,23,44.3,23z M29.1,24.7h4.7
					c0.4,0,0.6-0.4,0.6-0.8c0-0.5-0.3-0.8-0.6-0.8h-4.7c-0.5,0-0.8-0.5-0.8-1.1s0.4-1.1,0.8-1.1h7.2V24c0,0.5,0.3,0.8,0.6,0.8
					c0.4,0,0.6-0.4,0.6-0.8v-3.1h8.3c0.4,0,0.6-0.4,0.6-0.8c0-0.5-0.3-0.8-0.6-0.8H29.1c-1.2,0-2.1,1.2-2.1,2.7
					C27,23.4,27.9,24.7,29.1,24.7z"/>
			</g>
		</g>
	</g>
</g>
</svg>
